<mxfile host="app.diagrams.net" agent="Mozilla/5.0 (Windows NT 10.0; Win64; x64) AppleWebKit/537.36 (KHTML, like Gecko) Chrome/138.0.0.0 Safari/537.36 Edg/138.0.0.0" version="28.0.7">
  <diagram name="Page-1" id="TsEi1umNOWSQq_jciiVm">
    <mxGraphModel dx="766" dy="458" grid="1" gridSize="10" guides="1" tooltips="1" connect="1" arrows="1" fold="1" page="1" pageScale="1" pageWidth="1100" pageHeight="850" math="0" shadow="0">
      <root>
        <mxCell id="0" />
        <mxCell id="1" parent="0" />
        <mxCell id="ObSiv7ZUEUBPDtsc8qe3-1" value="" style="endArrow=none;html=1;rounded=0;fillColor=#60a917;strokeColor=#2D7600;" edge="1" parent="1">
          <mxGeometry width="50" height="50" relative="1" as="geometry">
            <mxPoint x="235" y="220" as="sourcePoint" />
            <mxPoint x="875" y="220" as="targetPoint" />
          </mxGeometry>
        </mxCell>
        <mxCell id="ObSiv7ZUEUBPDtsc8qe3-2" value="Dev Branch" style="edgeLabel;html=1;align=center;verticalAlign=middle;resizable=0;points=[];" vertex="1" connectable="0" parent="ObSiv7ZUEUBPDtsc8qe3-1">
          <mxGeometry x="0.9487" y="3" relative="1" as="geometry">
            <mxPoint as="offset" />
          </mxGeometry>
        </mxCell>
        <mxCell id="ObSiv7ZUEUBPDtsc8qe3-5" value="" style="endArrow=none;html=1;rounded=0;fillColor=#e51400;strokeColor=#B20000;" edge="1" parent="1">
          <mxGeometry width="50" height="50" relative="1" as="geometry">
            <mxPoint x="235" y="430" as="sourcePoint" />
            <mxPoint x="875" y="430" as="targetPoint" />
          </mxGeometry>
        </mxCell>
        <mxCell id="ObSiv7ZUEUBPDtsc8qe3-6" value="Master" style="edgeLabel;html=1;align=center;verticalAlign=middle;resizable=0;points=[];" vertex="1" connectable="0" parent="ObSiv7ZUEUBPDtsc8qe3-5">
          <mxGeometry x="0.8468" y="2" relative="1" as="geometry">
            <mxPoint as="offset" />
          </mxGeometry>
        </mxCell>
        <mxCell id="ObSiv7ZUEUBPDtsc8qe3-7" style="edgeStyle=orthogonalEdgeStyle;rounded=0;orthogonalLoop=1;jettySize=auto;html=1;" edge="1" parent="1">
          <mxGeometry relative="1" as="geometry">
            <mxPoint x="395" y="220" as="targetPoint" />
            <mxPoint x="395" y="150" as="sourcePoint" />
          </mxGeometry>
        </mxCell>
        <mxCell id="ObSiv7ZUEUBPDtsc8qe3-8" value="Story" style="edgeLabel;html=1;align=center;verticalAlign=middle;resizable=0;points=[];" vertex="1" connectable="0" parent="ObSiv7ZUEUBPDtsc8qe3-7">
          <mxGeometry x="0.8331" y="-2" relative="1" as="geometry">
            <mxPoint y="-34" as="offset" />
          </mxGeometry>
        </mxCell>
        <mxCell id="ObSiv7ZUEUBPDtsc8qe3-11" style="edgeStyle=orthogonalEdgeStyle;rounded=0;orthogonalLoop=1;jettySize=auto;html=1;" edge="1" parent="1">
          <mxGeometry relative="1" as="geometry">
            <mxPoint x="445" y="220" as="targetPoint" />
            <mxPoint x="445" y="180" as="sourcePoint" />
          </mxGeometry>
        </mxCell>
        <mxCell id="ObSiv7ZUEUBPDtsc8qe3-12" value="Bugfix1" style="edgeLabel;html=1;align=center;verticalAlign=middle;resizable=0;points=[];" vertex="1" connectable="0" parent="ObSiv7ZUEUBPDtsc8qe3-11">
          <mxGeometry x="0.7065" relative="1" as="geometry">
            <mxPoint y="-14" as="offset" />
          </mxGeometry>
        </mxCell>
        <mxCell id="ObSiv7ZUEUBPDtsc8qe3-13" style="edgeStyle=orthogonalEdgeStyle;rounded=0;orthogonalLoop=1;jettySize=auto;html=1;" edge="1" parent="1">
          <mxGeometry relative="1" as="geometry">
            <mxPoint x="565" y="220" as="targetPoint" />
            <mxPoint x="565" y="180" as="sourcePoint" />
          </mxGeometry>
        </mxCell>
        <mxCell id="ObSiv7ZUEUBPDtsc8qe3-14" value="Bugfix3" style="edgeLabel;html=1;align=center;verticalAlign=middle;resizable=0;points=[];" vertex="1" connectable="0" parent="ObSiv7ZUEUBPDtsc8qe3-13">
          <mxGeometry x="0.5011" y="-2" relative="1" as="geometry">
            <mxPoint x="2" y="-10" as="offset" />
          </mxGeometry>
        </mxCell>
        <mxCell id="ObSiv7ZUEUBPDtsc8qe3-15" value="" style="endArrow=classic;html=1;rounded=0;" edge="1" parent="1">
          <mxGeometry width="50" height="50" relative="1" as="geometry">
            <mxPoint x="110" y="590" as="sourcePoint" />
            <mxPoint x="900" y="590" as="targetPoint" />
          </mxGeometry>
        </mxCell>
        <mxCell id="ObSiv7ZUEUBPDtsc8qe3-16" value="Time" style="edgeLabel;html=1;align=center;verticalAlign=middle;resizable=0;points=[];" vertex="1" connectable="0" parent="ObSiv7ZUEUBPDtsc8qe3-15">
          <mxGeometry x="0.877" y="3" relative="1" as="geometry">
            <mxPoint as="offset" />
          </mxGeometry>
        </mxCell>
        <mxCell id="ObSiv7ZUEUBPDtsc8qe3-17" value="" style="endArrow=none;html=1;rounded=0;" edge="1" parent="1">
          <mxGeometry width="50" height="50" relative="1" as="geometry">
            <mxPoint x="365" y="151" as="sourcePoint" />
            <mxPoint x="815" y="151" as="targetPoint" />
          </mxGeometry>
        </mxCell>
        <mxCell id="ObSiv7ZUEUBPDtsc8qe3-18" value="Feature1" style="edgeLabel;html=1;align=center;verticalAlign=middle;resizable=0;points=[];" vertex="1" connectable="0" parent="ObSiv7ZUEUBPDtsc8qe3-17">
          <mxGeometry x="0.6556" y="1" relative="1" as="geometry">
            <mxPoint as="offset" />
          </mxGeometry>
        </mxCell>
        <mxCell id="ObSiv7ZUEUBPDtsc8qe3-19" value="" style="endArrow=classic;html=1;rounded=0;" edge="1" parent="1">
          <mxGeometry width="50" height="50" relative="1" as="geometry">
            <mxPoint x="367" y="430" as="sourcePoint" />
            <mxPoint x="367" y="150" as="targetPoint" />
          </mxGeometry>
        </mxCell>
        <mxCell id="ObSiv7ZUEUBPDtsc8qe3-20" value="Create" style="edgeLabel;html=1;align=center;verticalAlign=middle;resizable=0;points=[];" vertex="1" connectable="0" parent="ObSiv7ZUEUBPDtsc8qe3-19">
          <mxGeometry x="-0.7429" y="1" relative="1" as="geometry">
            <mxPoint as="offset" />
          </mxGeometry>
        </mxCell>
        <mxCell id="ObSiv7ZUEUBPDtsc8qe3-21" value="" style="endArrow=classic;html=1;rounded=0;" edge="1" parent="1">
          <mxGeometry width="50" height="50" relative="1" as="geometry">
            <mxPoint x="505" y="180" as="sourcePoint" />
            <mxPoint x="505" y="220" as="targetPoint" />
          </mxGeometry>
        </mxCell>
        <mxCell id="ObSiv7ZUEUBPDtsc8qe3-22" value="Bugfix2" style="edgeLabel;html=1;align=center;verticalAlign=middle;resizable=0;points=[];" vertex="1" connectable="0" parent="ObSiv7ZUEUBPDtsc8qe3-21">
          <mxGeometry x="-0.0476" y="-1" relative="1" as="geometry">
            <mxPoint as="offset" />
          </mxGeometry>
        </mxCell>
        <mxCell id="ObSiv7ZUEUBPDtsc8qe3-23" value="" style="shape=link;html=1;rounded=0;" edge="1" parent="1">
          <mxGeometry width="100" relative="1" as="geometry">
            <mxPoint x="255" y="560" as="sourcePoint" />
            <mxPoint x="865" y="560" as="targetPoint" />
          </mxGeometry>
        </mxCell>
        <mxCell id="ObSiv7ZUEUBPDtsc8qe3-24" value="QAEnvironment" style="edgeLabel;html=1;align=center;verticalAlign=middle;resizable=0;points=[];" vertex="1" connectable="0" parent="ObSiv7ZUEUBPDtsc8qe3-23">
          <mxGeometry x="0.9074" y="4" relative="1" as="geometry">
            <mxPoint x="1" as="offset" />
          </mxGeometry>
        </mxCell>
        <mxCell id="ObSiv7ZUEUBPDtsc8qe3-25" value="" style="endArrow=classic;html=1;rounded=0;" edge="1" parent="1">
          <mxGeometry width="50" height="50" relative="1" as="geometry">
            <mxPoint x="345" y="220" as="sourcePoint" />
            <mxPoint x="345" y="560" as="targetPoint" />
          </mxGeometry>
        </mxCell>
        <mxCell id="ObSiv7ZUEUBPDtsc8qe3-26" value="" style="endArrow=classic;html=1;rounded=0;" edge="1" parent="1">
          <mxGeometry width="50" height="50" relative="1" as="geometry">
            <mxPoint x="455" y="220" as="sourcePoint" />
            <mxPoint x="455" y="560" as="targetPoint" />
          </mxGeometry>
        </mxCell>
        <mxCell id="ObSiv7ZUEUBPDtsc8qe3-27" value="" style="shape=link;html=1;rounded=0;" edge="1" parent="1">
          <mxGeometry width="100" relative="1" as="geometry">
            <mxPoint x="240" y="480" as="sourcePoint" />
            <mxPoint x="910" y="480" as="targetPoint" />
          </mxGeometry>
        </mxCell>
        <mxCell id="ObSiv7ZUEUBPDtsc8qe3-28" value="UATEnvironment" style="edgeLabel;html=1;align=center;verticalAlign=middle;resizable=0;points=[];" vertex="1" connectable="0" parent="ObSiv7ZUEUBPDtsc8qe3-27">
          <mxGeometry x="0.9087" y="-1" relative="1" as="geometry">
            <mxPoint as="offset" />
          </mxGeometry>
        </mxCell>
        <mxCell id="ObSiv7ZUEUBPDtsc8qe3-35" value="" style="endArrow=classic;html=1;rounded=0;" edge="1" parent="1">
          <mxGeometry width="50" height="50" relative="1" as="geometry">
            <mxPoint x="525" y="220" as="sourcePoint" />
            <mxPoint x="525" y="560" as="targetPoint" />
          </mxGeometry>
        </mxCell>
        <mxCell id="ObSiv7ZUEUBPDtsc8qe3-36" value="" style="endArrow=classic;html=1;rounded=0;" edge="1" parent="1">
          <mxGeometry width="50" height="50" relative="1" as="geometry">
            <mxPoint x="625" y="220" as="sourcePoint" />
            <mxPoint x="625" y="430" as="targetPoint" />
          </mxGeometry>
        </mxCell>
        <mxCell id="ObSiv7ZUEUBPDtsc8qe3-37" value="Release Merge" style="edgeLabel;html=1;align=center;verticalAlign=middle;resizable=0;points=[];" vertex="1" connectable="0" parent="ObSiv7ZUEUBPDtsc8qe3-36">
          <mxGeometry x="-0.2267" relative="1" as="geometry">
            <mxPoint as="offset" />
          </mxGeometry>
        </mxCell>
        <mxCell id="ObSiv7ZUEUBPDtsc8qe3-39" value="" style="endArrow=classic;html=1;rounded=0;" edge="1" parent="1">
          <mxGeometry width="50" height="50" relative="1" as="geometry">
            <mxPoint x="575" y="220" as="sourcePoint" />
            <mxPoint x="575" y="480" as="targetPoint" />
          </mxGeometry>
        </mxCell>
        <mxCell id="ObSiv7ZUEUBPDtsc8qe3-41" value="" style="shape=link;html=1;rounded=0;" edge="1" parent="1">
          <mxGeometry width="100" relative="1" as="geometry">
            <mxPoint x="245" y="640" as="sourcePoint" />
            <mxPoint x="855" y="640" as="targetPoint" />
          </mxGeometry>
        </mxCell>
        <mxCell id="ObSiv7ZUEUBPDtsc8qe3-42" value="ProdEnvironment" style="edgeLabel;html=1;align=center;verticalAlign=middle;resizable=0;points=[];" vertex="1" connectable="0" parent="ObSiv7ZUEUBPDtsc8qe3-41">
          <mxGeometry x="0.9074" y="4" relative="1" as="geometry">
            <mxPoint x="1" as="offset" />
          </mxGeometry>
        </mxCell>
        <mxCell id="ObSiv7ZUEUBPDtsc8qe3-43" value="" style="endArrow=classic;html=1;rounded=0;" edge="1" parent="1">
          <mxGeometry width="50" height="50" relative="1" as="geometry">
            <mxPoint x="655" y="430" as="sourcePoint" />
            <mxPoint x="655" y="640" as="targetPoint" />
          </mxGeometry>
        </mxCell>
        <mxCell id="ObSiv7ZUEUBPDtsc8qe3-44" value="" style="endArrow=none;html=1;rounded=0;" edge="1" parent="1">
          <mxGeometry width="50" height="50" relative="1" as="geometry">
            <mxPoint x="425" y="180" as="sourcePoint" />
            <mxPoint x="825" y="180" as="targetPoint" />
          </mxGeometry>
        </mxCell>
        <mxCell id="ObSiv7ZUEUBPDtsc8qe3-46" value="Bug of feature" style="edgeLabel;html=1;align=center;verticalAlign=middle;resizable=0;points=[];" vertex="1" connectable="0" parent="ObSiv7ZUEUBPDtsc8qe3-44">
          <mxGeometry x="0.2476" y="2" relative="1" as="geometry">
            <mxPoint as="offset" />
          </mxGeometry>
        </mxCell>
        <mxCell id="ObSiv7ZUEUBPDtsc8qe3-48" value="" style="endArrow=classic;html=1;rounded=0;" edge="1" parent="1">
          <mxGeometry width="50" height="50" relative="1" as="geometry">
            <mxPoint x="425" y="220" as="sourcePoint" />
            <mxPoint x="425" y="180" as="targetPoint" />
          </mxGeometry>
        </mxCell>
        <mxCell id="ObSiv7ZUEUBPDtsc8qe3-50" value="" style="endArrow=classic;html=1;rounded=0;fillColor=#a20025;strokeColor=#6F0000;" edge="1" parent="1">
          <mxGeometry width="50" height="50" relative="1" as="geometry">
            <mxPoint x="485" y="80" as="sourcePoint" />
            <mxPoint x="485" y="220" as="targetPoint" />
          </mxGeometry>
        </mxCell>
        <mxCell id="ObSiv7ZUEUBPDtsc8qe3-51" value="Some other feature fix" style="edgeLabel;html=1;align=center;verticalAlign=middle;resizable=0;points=[];" vertex="1" connectable="0" parent="ObSiv7ZUEUBPDtsc8qe3-50">
          <mxGeometry x="-0.6429" y="1" relative="1" as="geometry">
            <mxPoint as="offset" />
          </mxGeometry>
        </mxCell>
      </root>
    </mxGraphModel>
  </diagram>
</mxfile>
